<svg width="512" height="512" viewBox="0 0 512 512" fill="none" xmlns="http://www.w3.org/2000/svg">
<rect width="512" height="512" fill="url(#paint0_linear_1_3)"/>
<path d="M131.455 227.727V211.818C141.758 211.818 148.939 209.727 153 205.545C157.121 201.303 159.182 194.424 159.182 184.909V161.727C159.182 151.485 160.455 143.091 163 136.545C165.606 130 169.394 124.909 174.364 121.273C179.333 117.636 185.394 115.121 192.545 113.727C199.697 112.273 207.818 111.545 216.909 111.545V136.818C209.758 136.818 204.273 137.818 200.455 139.818C196.636 141.758 194 144.758 192.545 148.818C191.152 152.879 190.455 158.061 190.455 164.364V194.182C190.455 198.848 189.667 203.212 188.091 207.273C186.515 211.333 183.636 214.909 179.455 218C175.273 221.03 169.303 223.424 161.545 225.182C153.848 226.879 143.818 227.727 131.455 227.727ZM216.909 342.545C207.818 342.545 199.697 341.818 192.545 340.364C185.394 338.97 179.333 336.455 174.364 332.818C169.394 329.182 165.606 324.091 163 317.545C160.455 311 159.182 302.606 159.182 292.364V269.273C159.182 259.758 157.121 252.909 153 248.727C148.939 244.485 141.758 242.364 131.455 242.364V226.455C143.818 226.455 153.848 227.333 161.545 229.091C169.303 230.788 175.273 233.182 179.455 236.273C183.636 239.303 186.515 242.848 188.091 246.909C189.667 250.97 190.455 255.303 190.455 259.909V289.727C190.455 296.03 191.152 301.212 192.545 305.273C194 309.333 196.636 312.364 200.455 314.364C204.273 316.364 209.758 317.364 216.909 317.364V342.545ZM131.455 242.364V211.818H160.273V242.364H131.455ZM379.523 226.455V242.364C369.22 242.364 362.008 244.485 357.886 248.727C353.826 252.909 351.795 259.758 351.795 269.273V292.364C351.795 302.606 350.492 311 347.886 317.545C345.341 324.091 341.583 329.182 336.614 332.818C331.644 336.455 325.583 338.97 318.432 340.364C311.28 341.818 303.159 342.545 294.068 342.545V317.364C301.22 317.364 306.705 316.364 310.523 314.364C314.341 312.364 316.947 309.333 318.341 305.273C319.795 301.212 320.523 296.03 320.523 289.727V259.909C320.523 255.303 321.311 250.97 322.886 246.909C324.462 242.848 327.341 239.303 331.523 236.273C335.705 233.182 341.644 230.788 349.341 229.091C357.098 227.333 367.159 226.455 379.523 226.455ZM294.068 111.545C303.159 111.545 311.28 112.273 318.432 113.727C325.583 115.121 331.644 117.636 336.614 121.273C341.583 124.909 345.341 130 347.886 136.545C350.492 143.091 351.795 151.485 351.795 161.727V184.909C351.795 194.424 353.826 201.303 357.886 205.545C362.008 209.727 369.22 211.818 379.523 211.818V227.727C367.159 227.727 357.098 226.879 349.341 225.182C341.644 223.424 335.705 221.03 331.523 218C327.341 214.909 324.462 211.333 322.886 207.273C321.311 203.212 320.523 198.848 320.523 194.182V164.364C320.523 158.061 319.795 152.879 318.341 148.818C316.947 144.758 314.341 141.758 310.523 139.818C306.705 137.818 301.22 136.818 294.068 136.818V111.545ZM379.523 211.818V242.364H350.705V211.818H379.523Z" fill="white"/>
<path d="M180.984 427.576C178.083 427.576 175.48 427.064 173.176 426.04C170.872 424.973 169.037 423.544 167.672 421.752C166.349 419.96 165.624 417.976 165.496 415.8H174.52C174.691 417.165 175.352 418.296 176.504 419.192C177.699 420.088 179.171 420.536 180.92 420.536C182.627 420.536 183.949 420.195 184.888 419.512C185.869 418.829 186.36 417.955 186.36 416.888C186.36 415.736 185.763 414.883 184.568 414.328C183.416 413.731 181.56 413.091 179 412.408C176.355 411.768 174.179 411.107 172.472 410.424C170.808 409.741 169.357 408.696 168.12 407.288C166.925 405.88 166.328 403.981 166.328 401.592C166.328 399.629 166.883 397.837 167.992 396.216C169.144 394.595 170.765 393.315 172.856 392.376C174.989 391.437 177.485 390.968 180.344 390.968C184.568 390.968 187.939 392.035 190.456 394.168C192.973 396.259 194.36 399.096 194.616 402.68H186.04C185.912 401.272 185.315 400.163 184.248 399.352C183.224 398.499 181.837 398.072 180.088 398.072C178.467 398.072 177.208 398.371 176.312 398.968C175.459 399.565 175.032 400.397 175.032 401.464C175.032 402.659 175.629 403.576 176.824 404.216C178.019 404.813 179.875 405.432 182.392 406.072C184.952 406.712 187.064 407.373 188.728 408.056C190.392 408.739 191.821 409.805 193.016 411.256C194.253 412.664 194.893 414.541 194.936 416.888C194.936 418.936 194.36 420.771 193.208 422.392C192.099 424.013 190.477 425.293 188.344 426.232C186.253 427.128 183.8 427.576 180.984 427.576ZM199.987 409.272C199.987 405.603 200.734 402.403 202.227 399.672C203.72 396.899 205.79 394.765 208.435 393.272C211.08 391.736 214.11 390.968 217.523 390.968C221.918 390.968 225.544 392.077 228.403 394.296C231.304 396.472 233.246 399.544 234.227 403.512H224.563C224.051 401.976 223.176 400.781 221.939 399.928C220.744 399.032 219.251 398.584 217.459 398.584C214.899 398.584 212.872 399.523 211.379 401.4C209.886 403.235 209.139 405.859 209.139 409.272C209.139 412.643 209.886 415.267 211.379 417.144C212.872 418.979 214.899 419.896 217.459 419.896C221.086 419.896 223.454 418.275 224.563 415.032H234.227C233.246 418.872 231.304 421.923 228.403 424.184C225.502 426.445 221.875 427.576 217.523 427.576C214.11 427.576 211.08 426.829 208.435 425.336C205.79 423.8 203.72 421.667 202.227 418.936C200.734 416.163 199.987 412.941 199.987 409.272ZM249.751 397.048C250.903 395.171 252.396 393.699 254.231 392.632C256.108 391.565 258.242 391.032 260.631 391.032V400.44H258.263C255.447 400.44 253.314 401.101 251.863 402.424C250.455 403.747 249.751 406.051 249.751 409.336V427H240.791V391.544H249.751V397.048ZM264.362 409.144C264.362 405.56 265.066 402.381 266.474 399.608C267.925 396.835 269.866 394.701 272.298 393.208C274.773 391.715 277.525 390.968 280.554 390.968C283.199 390.968 285.503 391.501 287.466 392.568C289.471 393.635 291.071 394.979 292.266 396.6V391.544H301.29V427H292.266V421.816C291.114 423.48 289.514 424.867 287.466 425.976C285.461 427.043 283.135 427.576 280.49 427.576C277.503 427.576 274.773 426.808 272.298 425.272C269.866 423.736 267.925 421.581 266.474 418.808C265.066 415.992 264.362 412.771 264.362 409.144ZM292.266 409.272C292.266 407.096 291.839 405.24 290.986 403.704C290.133 402.125 288.981 400.931 287.53 400.12C286.079 399.267 284.522 398.84 282.858 398.84C281.194 398.84 279.658 399.245 278.25 400.056C276.842 400.867 275.69 402.061 274.794 403.64C273.941 405.176 273.514 407.011 273.514 409.144C273.514 411.277 273.941 413.155 274.794 414.776C275.69 416.355 276.842 417.571 278.25 418.424C279.701 419.277 281.237 419.704 282.858 419.704C284.522 419.704 286.079 419.299 287.53 418.488C288.981 417.635 290.133 416.44 290.986 414.904C291.839 413.325 292.266 411.448 292.266 409.272ZM319.001 396.664C320.153 395.043 321.732 393.699 323.737 392.632C325.785 391.523 328.11 390.968 330.713 390.968C333.742 390.968 336.473 391.715 338.905 393.208C341.38 394.701 343.321 396.835 344.729 399.608C346.18 402.339 346.905 405.517 346.905 409.144C346.905 412.771 346.18 415.992 344.729 418.808C343.321 421.581 341.38 423.736 338.905 425.272C336.473 426.808 333.742 427.576 330.713 427.576C328.11 427.576 325.806 427.043 323.801 425.976C321.838 424.909 320.238 423.565 319.001 421.944V443.896H310.041V391.544H319.001V396.664ZM337.753 409.144C337.753 407.011 337.305 405.176 336.409 403.64C335.556 402.061 334.404 400.867 332.953 400.056C331.545 399.245 330.009 398.84 328.345 398.84C326.724 398.84 325.188 399.267 323.737 400.12C322.329 400.931 321.177 402.125 320.281 403.704C319.428 405.283 319.001 407.139 319.001 409.272C319.001 411.405 319.428 413.261 320.281 414.84C321.177 416.419 322.329 417.635 323.737 418.488C325.188 419.299 326.724 419.704 328.345 419.704C330.009 419.704 331.545 419.277 332.953 418.424C334.404 417.571 335.556 416.355 336.409 414.776C337.305 413.197 337.753 411.32 337.753 409.144Z" fill="white"/>
<defs>
<linearGradient id="paint0_linear_1_3" x1="256" y1="0" x2="256" y2="512" gradientUnits="userSpaceOnUse">
<stop offset="0.185" stop-color="#006EFF"/>
<stop offset="0.83" stop-color="#1479FF"/>
</linearGradient>
</defs>
</svg>
